inDegrees=no
num_controls=7
num_derivatives=13
num_iterations=93
num_multipliers=7
num_parameters=0
num_slacks=7
num_states=26
objective=5.263421
objective_accelerations=0.431022
objective_balance=0.013654
objective_effort=0.378464
objective_height=4.412877
objective_ligament=0.027403
solver_duration=778.674445
status=Solve_Succeeded
success=true
DataType=double
version=3
OpenSimVersion=4.4-2022-07-23-0e9fedc
endheader
time	/jointset/ground_pelvis/pelvis_tilt/value	/jointset/ground_pelvis/pelvis_tx/value	/jointset/ground_pelvis/pelvis_ty/value	/jointset/hip_r/hip_flexion_r/value	/jointset/hip_r/hip_adduction_r/value	/jointset/hip_r/hip_rotation_r/value	/jointset/back/lumbar_extension/value	/jointset/patellofemoral_r/patellar_flexion_r/value	/jointset/knee_r/knee_flexion_r/value	/jointset/knee_r/knee_adduction_r/value	/jointset/knee_r/knee_rotation_r/value	/jointset/ankle_r/ankle_angle_r/value	/jointset/subtalar_r/subtalar_angle_r/value	/jointset/ground_pelvis/pelvis_tilt/speed	/jointset/ground_pelvis/pelvis_tx/speed	/jointset/ground_pelvis/pelvis_ty/speed	/jointset/hip_r/hip_flexion_r/speed	/jointset/hip_r/hip_adduction_r/speed	/jointset/hip_r/hip_rotation_r/speed	/jointset/back/lumbar_extension/speed	/jointset/patellofemoral_r/patellar_flexion_r/speed	/jointset/knee_r/knee_flexion_r/speed	/jointset/knee_r/knee_adduction_r/speed	/jointset/knee_r/knee_rotation_r/speed	/jointset/ankle_r/ankle_angle_r/speed	/jointset/subtalar_r/subtalar_angle_r/speed	/forceset/tau_hip_flexion_r	/forceset/tau_hip_adduction_r	/forceset/tau_hip_rotation_r	/forceset/tau_knee_flexion_r	/forceset/tau_ankle_angle_r	/forceset/tau_subtalar_angle_r	/forceset/tau_lumbar_extension	lambda_cid13_p0	lambda_cid14_p0	lambda_cid14_p1	lambda_cid14_p2	lambda_cid14_p3	lambda_cid14_p4	lambda_cid14_p5	/jointset/ground_pelvis/pelvis_tilt/accel	/jointset/ground_pelvis/pelvis_tx/accel	/jointset/ground_pelvis/pelvis_ty/accel	/jointset/hip_r/hip_flexion_r/accel	/jointset/hip_r/hip_adduction_r/accel	/jointset/hip_r/hip_rotation_r/accel	/jointset/back/lumbar_extension/accel	/jointset/patellofemoral_r/patellar_flexion_r/accel	/jointset/knee_r/knee_flexion_r/accel	/jointset/knee_r/knee_adduction_r/accel	/jointset/knee_r/knee_rotation_r/accel	/jointset/ankle_r/ankle_angle_r/accel	/jointset/subtalar_r/subtalar_angle_r/accel	gamma_cid13_p0	gamma_cid14_p0	gamma_cid14_p1	gamma_cid14_p2	gamma_cid14_p3	gamma_cid14_p4	gamma_cid14_p5
1	-0.1547565108544005	0.02021452441780149	0.7100353856032919	1.150865484080247	-0.2466262901535906	-0.02806558639088143	-0.7853793270708165	1.330186076872874	1.330186076872721	-0.04428116189902065	0.1745265760855752	0.4362680866255701	0.158639652650122	0.06903158345281106	0.006185152643575367	0.01337600256343913	-0.09823839015487414	-0.001215690835766269	-0.004552146909000949	0.004016295067450771	-0.01658862883851829	-0.01658862883851818	0.001963130121482776	-5.009799022997005e-05	0.01242064309403907	0.003858310933310659	-0.2818341720944563	0.04099081043240238	0.02556711696636516	-0.4160380936228374	-0.05304913267819862	-0.004715748945818473	0.3274190585702392	-0.04292169517160007	-67.53331416214539	-16.25752388341701	5.737934147180565	6.340284566530467	-748.2112555182853	58.6390782096877	1.05630907227975	0.2021676372990246	1.401406052603773	-4.393463310772834	0.1086277621672087	-0.8265202463072993	0.4191061600214316	-4.351213491294002	-4.351213491294403	0.439831236683742	-0.002533778975713354	-1.208977181654133	-0.362256491649478	5.613291187026739e-10	-1.939745731202005e-09	1.743024346250054e-09	3.465074686640907e-09	3.716565105544201e-09	-5.916878409978163e-09	-1.05860658654376e-10
1.01	-0.1540144353944996	0.02028666782396065	0.7102390092415274	1.149664605462031	-0.2466330688637349	-0.02815169947719194	-0.7853157066776462	1.329803112133792	1.329803112133768	-0.04423889885518769	0.1745257824030315	0.4363321678458316	0.1586601563717483	0.07934436178116749	0.008264892196628586	0.02734177708120886	-0.1419141303579292	-0.0001451330878318454	-0.01266894110869083	0.008882516728201905	-0.05998888598424205	-0.05998888598424548	0.006493231907742956	-0.0001034217611004066	0.0004278841991004047	0.0002484776835053547	-0.2823998348565783	0.04105825779642993	0.02557209340643441	-0.4158826613751807	-0.05324872826194034	-0.004696329515283914	0.328271593445038	-0.04291084780487747	-67.61333190940708	-16.25998495379861	5.734767746489844	6.115433285218883	-748.648142042506	58.62817536682581	1.01289059509177	0.2140821725342638	1.393119466319477	-4.351148680534886	0.1055097515136984	-0.8040294115489767	0.5465901418202047	-4.332117159300048	-4.332117159300189	0.4601635836994051	-0.005946265785041866	-1.189583396796813	-0.3594369546302881	1.403523704419475e-09	-1.049280051616217e-09	1.100616142843632e-08	1.126060707136455e-08	2.59663986455544e-09	-7.408072806504547e-09	1.156184645163119e-08
1.02	-0.1531704064749161	0.02038024963729618	0.7105820818879292	1.1480276655807	-0.2466292940023068	-0.0283189345865109	-0.7851981820732925	1.328986607756634	1.328986607756744	-0.04415122200665631	0.1745246125648887	0.4362772898468431	0.1586447437182814	0.08942227538864458	0.01047283407884675	0.04126580419695385	-0.1854506427795108	0.0008950234764272016	-0.0207765514983671	0.01479713729763006	-0.1032965564535111	-0.1032965564535155	0.01104589105811266	-0.000125329117631213	-0.01137120083116914	-0.003324964085696656	-0.2829654976186815	0.04112570516030532	0.02557706984658908	-0.4157272291275234	-0.05344832384573928	-0.004676910085064178	0.3291241283198631	-0.0429052860961372	-67.70218715917538	-16.26022287182234	5.726940055955338	5.889331472904477	-749.2388126743232	58.63804453928069	1.00933612810397	0.227808103131981	1.393056572198795	-4.36561775447815	0.1025475254319842	-0.8246834843047209	0.6287859417564541	-4.332696156002965	-4.33269615600286	0.4443427095057315	0.003749503892617237	-1.170242408720358	-0.3549781955291171	2.695917171294118e-09	7.605868295174364e-10	2.072356654910895e-08	1.890022099445169e-08	-2.155781261158584e-10	-1.022422766903432e-08	2.660018258888608e-08
1.03	-0.1522267909643856	0.02049635565048347	0.7110641566389713	1.145956339439106	-0.24661521204089	-0.02856715180054277	-0.7850167835947245	1.327737307556863	1.327737307556934	-0.04401787036868755	0.1745233361758997	0.4361049244115239	0.1585936698736551	0.09925820483605273	0.01275015657626738	0.05513905033782103	-0.2287612691763778	0.001922082959536661	-0.02886129295100119	0.02160811276631754	-0.1465661511374809	-0.1465661511374798	0.01563093312217978	-0.0001290378424413213	-0.02311610831876326	-0.006894547771932578	-0.2832191686501736	0.04131167986335494	0.02554527320922573	-0.4148450986001383	-0.05455351734429964	-0.004586512948554228	0.3295317408077044	-0.04291987068095199	-68.05833701467229	-16.25652494210707	5.695741073649244	6.172044329176011	-749.3443696227313	58.58052655259957	0.9643287642734329	0.2279618992778752	1.382941655988235	-4.305787126768868	0.1028966108488581	-0.7995285099666225	0.7260865010369857	-4.32449207633274	-4.324492076331948	0.4665611720062048	-0.002287041352471721	-1.178749009112606	-0.3586518825704008	3.992904504303027e-09	2.579835355564848e-09	3.044560705792939e-08	2.653824391282826e-08	-3.045064410151275e-09	-1.305390253631924e-08	4.167291289988558e-08
1.04	-0.1511860946771302	0.02063528840389164	0.7116846604556112	1.143453506624644	-0.2465908371944155	-0.02889604823599062	-0.7847635087311248	1.326055231219904	1.326055231219946	-0.04383847306666558	0.1745220515035039	0.4358146830832151	0.1585067595066877	0.1088384307320094	0.01503818212302236	0.06895161731676069	-0.2717519773523721	0.002953600486612939	-0.03691239577261043	0.02917241429944059	-0.1898517838910037	-0.1898517838909988	0.02025502387222545	-0.0001269857946102284	-0.03494637941970889	-0.01049226855417347	-0.2834728396817157	0.04149765456628551	0.02551347657210304	-0.4139629680727436	-0.055658710842897	-0.004496115812290847	0.3299393532955093	-0.04293951059408514	-68.42335897216527	-16.2506017812882	5.65987117394503	6.452136116201983	-749.6050704072588	58.54406914093232	0.958195417813801	0.2299487129987575	1.38092073981326	-4.30163411030358	0.1034391342251603	-0.8179557580999568	0.7794511546433454	-4.33590376991351	-4.335903769913738	0.452152446701543	0.00490165842139301	-1.187315131390824	-0.3606056147305322	5.057573957486558e-09	3.046100646592633e-09	3.829060942776429e-08	3.562299423602265e-08	-3.063051339253562e-09	-1.52232680106865e-08	5.210185989891317e-08
